<?xml version="1.0" encoding="utf-8"?>
<!-- Generator: Adobe Illustrator 28.3.0, SVG Export Plug-In . SVG Version: 6.00 Build 0)  -->
<svg version="1.1" id="Layer_1" xmlns="http://www.w3.org/2000/svg" xmlns:xlink="http://www.w3.org/1999/xlink" x="0px" y="0px"
	 viewBox="0 0 1728 2883" style="enable-background:new 0 0 1728 2883;" xml:space="preserve">
<style type="text/css">
	.st0{fill:#FFFFFF;}
</style>
<rect x="0" width="1728" height="2883"/>
<rect x="0" y="2713.1" class="st0" width="1728" height="169.9"/>
<rect x="28.9" y="2641.3" class="st0" width="99.4" height="176.6"/>
<rect x="580.6" y="2671" class="st0" width="99.4" height="142.6"/>
<rect x="788.9" y="2729.6" class="st0" width="238.1" height="153.4"/>
<rect x="683.7" y="2459.3" class="st0" width="121.6" height="375.8"/>
<rect x="964.9" y="2496" class="st0" width="58.9" height="376.1"/>
<rect x="81" y="942.9" class="st0" width="233.4" height="1935.4"/>
<path class="st0" d="M70.6,831.2h254.2c7.5,0,13.6,6.1,13.6,13.6v104.3c0,7.5-6.1,13.6-13.6,13.6H70.6c-7.5,0-13.6-6.1-13.6-13.6
	V844.9C56.9,837.3,63,831.2,70.6,831.2z"/>
<rect x="71.4" y="1294.5" class="st0" width="253.4" height="24.9"/>
<rect x="71" y="1949.8" class="st0" width="253.4" height="24.9"/>
<rect x="357.7" y="2579.2" class="st0" width="247" height="303.8"/>
<path class="st0" d="M481.2,2332.7l123.6,292.6H357.5L481.2,2332.7z"/>
<rect x="648" y="2616.9" class="st0" width="579.5" height="266.1"/>
<path class="st0" d="M890.3,2631l290.4-201.9v403.8L890.3,2631z"/>
<path class="st0" d="M697.1,2631l290.4-201.9v403.8L697.1,2631z"/>
<rect x="1254" y="2647.5" class="st0" width="474" height="235.5"/>
<rect x="1301.4" y="2552.5" class="st0" width="379.2" height="277.9"/>
</svg>
