<?xml version="1.0" encoding="utf-8"?>
<!-- Generator: Adobe Illustrator 28.3.0, SVG Export Plug-In . SVG Version: 6.00 Build 0)  -->
<svg version="1.1" id="Layer_1" xmlns="http://www.w3.org/2000/svg" xmlns:xlink="http://www.w3.org/1999/xlink" x="0px" y="0px"
	 viewBox="0 0 1728 2883" style="enable-background:new 0 0 1728 2883;" xml:space="preserve">
<style type="text/css">
	.st0{fill:#FFFFFF;}
</style>
<rect x="0" width="1728" height="2883"/>
<g>
	<rect x="0" y="2552.4" class="st0" width="1728" height="403"/>
	<rect x="36" y="2479.2" class="st0" width="124" height="220.2"/>
	<rect x="724" y="2443.4" class="st0" width="124" height="181.7"/>
	<rect x="983.7" y="2518" class="st0" width="296.9" height="243.9"/>
	<rect x="848" y="2173.6" class="st0" width="136" height="478.8"/>
	<rect x="1162.4" y="2220.4" class="st0" width="65.9" height="479.1"/>
	<rect x="101" y="213.4" class="st0" width="291" height="2476"/>
	<path class="st0" d="M88,72.4h317c9.4,0,17,7.6,17,17v130c0,9.4-7.6,17-17,17H88c-9.4,0-17-7.6-17-17v-130C71,80,78.6,72.4,88,72.4
		z"/>
	<rect x="89" y="588.4" class="st0" width="316" height="31"/>
	<rect x="89" y="1581.4" class="st0" width="316" height="31"/>
	<rect x="446" y="2326.4" class="st0" width="308" height="470"/>
	<path class="st0" d="M600,2012.4l154.2,372.8H445.8L600,2012.4z"/>
	<rect x="808" y="2374.4" class="st0" width="648" height="374"/>
	<path class="st0" d="M1079,2392.4l324.8-257.2v514.4L1079,2392.4z"/>
	<path class="st0" d="M863,2392.4l324.8-257.2v514.4L863,2392.4z"/>
	<rect x="1498" y="2413.4" class="st0" width="370" height="305"/>
	<rect x="1535" y="2292.4" class="st0" width="296" height="354"/>
</g>
</svg>
