<?xml version="1.0" encoding="utf-8"?>
<!-- Generator: Adobe Illustrator 28.3.0, SVG Export Plug-In . SVG Version: 6.00 Build 0)  -->
<svg version="1.1" id="Layer_1" xmlns="http://www.w3.org/2000/svg" xmlns:xlink="http://www.w3.org/1999/xlink" x="0px" y="0px"
	 viewBox="0 0 1728 2883" style="enable-background:new 0 0 1728 2883;" xml:space="preserve">
<style type="text/css">
	.st0{fill:#FFFFFF;}
</style>
<rect x="0" width="1728" height="2883"/>
<g>
	<rect x="0" y="2632.2" class="st0" width="1728" height="250.8"/>
	<rect x="28.9" y="2573.5" class="st0" width="99.4" height="176.6"/>
	<rect x="580.6" y="2544.8" class="st0" width="99.4" height="145.7"/>
	<rect x="788.9" y="2604.6" class="st0" width="238.1" height="195.6"/>
	<rect x="683.7" y="2328.4" class="st0" width="121.6" height="384"/>
	<rect x="964.9" y="2366" class="st0" width="58.9" height="384.2"/>
	<rect x="81" y="942.9" class="st0" width="233.4" height="1935.4"/>
	<path class="st0" d="M70.6,831.2h254.2c7.5,0,13.6,6.1,13.6,13.6v104.3c0,7.5-6.1,13.6-13.6,13.6H70.6c-7.5,0-13.6-6.1-13.6-13.6
		V844.9C56.9,837.3,63,831.2,70.6,831.2z"/>
	<rect x="71.4" y="1294.5" class="st0" width="253.4" height="24.9"/>
	<rect x="71" y="1949.8" class="st0" width="253.4" height="24.9"/>
	<rect x="357.7" y="2451" class="st0" width="247" height="376.9"/>
	<path class="st0" d="M481.2,2199.1l123.6,298.9H357.5L481.2,2199.1z"/>
	<rect x="648" y="2489.4" class="st0" width="579.5" height="299.9"/>
	<path class="st0" d="M890.3,2503.9l290.4-206.3v412.5L890.3,2503.9z"/>
	<path class="st0" d="M697.1,2503.9l290.4-206.3v412.5L697.1,2503.9z"/>
	<rect x="1254" y="2520.7" class="st0" width="474" height="244.6"/>
	<rect x="1301.4" y="2423.7" class="st0" width="379.2" height="283.9"/>
</g>
</svg>
